<?xml version="1.0" encoding="utf-8"?>
<!-- Generator: Adobe Illustrator 19.1.0, SVG Export Plug-In . SVG Version: 6.00 Build 0)  -->
<svg version="1.1" id="Layer_1" xmlns="http://www.w3.org/2000/svg" xmlns:xlink="http://www.w3.org/1999/xlink" x="0px" y="0px"
	 viewBox="0 0 65.29 46.578" enable-background="new 0 0 65.29 46.578" xml:space="preserve">
<path fill="#FFFFFF" d="M29.293,44.059c-8.995,5.193-20.537,2.1-25.731-6.895c-5.193-8.995-2.1-20.537,6.894-25.73
	c8.995-5.193,20.538-2.101,25.731,6.894C41.381,27.322,38.288,38.865,29.293,44.059z M11.607,13.425
	C3.71,17.984,0.995,28.117,5.554,36.013s14.692,10.612,22.589,6.053s10.612-14.692,6.053-22.589S19.503,8.866,11.607,13.425z"/>
<path fill="#FFFFFF" d="M64.714,2.146l-2.249,1.298c-0.55,0.317-1.254,0.129-1.571-0.421s-0.128-1.254,0.421-1.571l2.249-1.298
	c0.55-0.317,1.254-0.129,1.571,0.421S65.264,1.829,64.714,2.146z"/>
<path fill="#FFFFFF" d="M45.899,23.41L19.983,38.373c-0.55,0.318-1.254,0.128-1.571-0.421c-0.317-0.55-0.129-1.254,0.421-1.571
	l25.916-14.962c0.55-0.317,1.254-0.129,1.571,0.421C46.637,22.389,46.448,23.093,45.899,23.41z"/>
<path fill="#FFFFFF" d="M41.539,6.473L21.043,18.306c-0.55,0.318-1.253,0.129-1.571-0.421s-0.129-1.253,0.421-1.571L40.389,4.481
	c0.55-0.317,1.254-0.129,1.571,0.421S42.089,6.155,41.539,6.473z"/>
<path fill="#FFFFFF" d="M15.986,21.226l-5.346,3.087c-0.55,0.318-1.253,0.129-1.571-0.421s-0.129-1.253,0.421-1.571l5.346-3.087
	c0.55-0.318,1.253-0.129,1.571,0.421S16.536,20.909,15.986,21.226z"/>
<path fill="#FFFFFF" d="M56.516,6.879L1.725,38.513c-0.55,0.318-1.253,0.129-1.571-0.421c-0.318-0.55-0.129-1.253,0.421-1.571
	l54.79-31.633c0.55-0.317,1.254-0.129,1.571,0.421S57.065,6.562,56.516,6.879z"/>
</svg>
