<svg xmlns="http://www.w3.org/2000/svg" viewBox="0 0 65.29 46.578"><path fill="#FFF" d="M29.293 44.06c-8.995 5.192-20.537 2.1-25.73-6.896-5.194-8.995-2.1-20.537 6.893-25.73 8.995-5.193 20.538-2.1 25.73 6.894 5.195 8.994 2.102 20.537-6.893 25.73zM11.607 13.424C3.71 17.985.995 28.117 5.554 36.013s14.692 10.612 22.59 6.053 10.61-14.692 6.052-22.59-14.693-10.61-22.59-6.05zM64.714 2.146l-2.25 1.298c-.55.317-1.253.13-1.57-.42s-.128-1.255.42-1.572l2.25-1.298c.55-.317 1.254-.13 1.57.42s.13 1.255-.42 1.572z"/><path fill="#FFF" d="M45.9 23.41L19.982 38.373c-.55.318-1.254.128-1.57-.42-.318-.55-.13-1.255.42-1.572L44.75 21.42c.55-.318 1.253-.13 1.57.42.317.55.128 1.253-.42 1.57zM41.54 6.473L21.042 18.306c-.55.318-1.253.13-1.57-.42s-.13-1.254.42-1.572L40.39 4.48c.55-.316 1.253-.128 1.57.422s.13 1.253-.42 1.57zM15.986 21.226l-5.346 3.087c-.55.318-1.253.13-1.57-.42s-.13-1.254.42-1.572l5.346-3.086c.55-.318 1.253-.13 1.57.42s.13 1.255-.42 1.572zM56.516 6.88L1.726 38.512c-.55.318-1.254.13-1.572-.42-.318-.55-.13-1.254.42-1.572L55.365 4.89c.55-.317 1.255-.13 1.572.42s.13 1.254-.42 1.57z"/></svg>